<svg width="159" height="105" viewBox="0 0 159 105" fill="none" xmlns="http://www.w3.org/2000/svg">
<path fill-rule="evenodd" clip-rule="evenodd" d="M131.819 54.4722C129.23 61.8678 126.552 69.5198 120.142 69.5674H120.146C111.139 69.6363 110.826 52.8247 110.507 35.713C110.177 18.0169 109.842 0 99.8786 0C91.2812 0 86.5201 13.8145 82.2299 26.2626C78.7226 36.4392 75.53 45.7026 70.8133 45.758C68.1243 45.7894 66.6624 42.9985 64.7423 39.3329C61.4285 33.0067 56.75 24.0752 42.0437 22.5506C19.081 20.1701 6.29492 38.5239 2.10051 54.9281C-1.55758 69.2424 -0.801207 104.537 33.1151 104.537C52.6096 104.537 58.4382 89.5427 62.6547 78.6954C65.0609 72.5052 66.942 67.6657 70.5383 67.734C74.5509 67.7948 75.7386 73.8087 77.1504 80.9577C79.2346 91.5109 81.8073 104.537 94.6768 104.537C104.278 104.537 109.192 97.6151 113.183 91.9932C115.939 88.111 118.255 84.849 121.37 84.9147C124.225 84.9745 125.893 88.387 127.831 92.3489C130.547 97.9015 133.79 104.533 141.565 104.527C158.195 104.514 159.312 78.628 157.961 67.4809C156.431 54.8699 151.7 40.9011 141.919 40.8258C136.611 40.7844 134.255 47.5148 131.819 54.4722ZM152.453 16.4519C152.893 20.5598 149.418 28.2489 141.221 28.2489L141.225 28.2523C132.585 28.2523 129.346 23.7579 129.257 18.039C129.167 12.3201 134.393 6.97745 139.516 6.79959C146.433 6.55675 151.924 11.5232 152.453 16.4519Z" fill="#F7F6E6"/>
</svg>
