<svg width="158" height="105" viewBox="0 0 158 105" fill="none" xmlns="http://www.w3.org/2000/svg">
<path fill-rule="evenodd" clip-rule="evenodd" d="M131.193 54.4722C128.604 61.8678 125.926 69.5198 119.516 69.5674H119.52C110.513 69.6363 110.2 52.8247 109.881 35.713C109.551 18.0169 109.216 0 99.2526 0C90.6553 0 85.8941 13.8145 81.604 26.2626C78.0966 36.4392 74.904 45.7026 70.1874 45.758C67.4983 45.7894 66.0364 42.9985 64.1163 39.3329C60.8025 33.0067 56.1241 24.0752 41.4178 22.5506C18.455 20.1701 5.66895 38.5239 1.47453 54.9281C-2.18355 69.2424 -1.42718 104.537 32.4892 104.537C51.9837 104.537 57.8123 89.5427 62.0287 78.6954C64.4349 72.5052 66.3161 67.6657 69.9123 67.734C73.9249 67.7948 75.1126 73.8087 76.5245 80.9577C78.6087 91.5109 81.1813 104.537 94.0509 104.537C103.652 104.537 108.566 97.6151 112.557 91.9932C115.313 88.111 117.629 84.849 120.744 84.9147C123.599 84.9745 125.267 88.387 127.205 92.3489C129.921 97.9015 133.164 104.533 140.939 104.527C157.569 104.514 158.686 78.628 157.335 67.4809C155.805 54.8699 151.074 40.9011 141.293 40.8258C135.985 40.7844 133.629 47.5148 131.193 54.4722ZM151.827 16.4519C152.267 20.5598 148.792 28.2489 140.595 28.2489L140.599 28.2523C131.959 28.2523 128.72 23.7579 128.631 18.039C128.541 12.3201 133.767 6.97745 138.89 6.79959C145.807 6.55675 151.298 11.5232 151.827 16.4519Z" fill="black"/>
</svg>
