<svg width="54" height="35" viewBox="0 0 54 35" fill="none" xmlns="http://www.w3.org/2000/svg">
<path fill-rule="evenodd" clip-rule="evenodd" d="M44.5184 18.2378C43.6516 20.7138 42.7547 23.2758 40.6088 23.2917H40.61C37.5944 23.3148 37.4895 17.6861 37.3828 11.957C37.2724 6.03222 37.16 0 33.8243 0C30.9459 0 29.3518 4.62521 27.9154 8.79292C26.7411 12.2001 25.6722 15.3016 24.093 15.3202C23.1927 15.3307 22.7033 14.3962 22.0604 13.169C20.9509 11.0509 19.3845 8.06058 14.4608 7.55014C6.77265 6.7531 2.49176 12.8981 1.08743 18.3904C-0.137321 23.1829 0.115917 35 11.4714 35C17.9983 35 19.9498 29.9797 21.3615 26.3479C22.1671 24.2754 22.7969 22.655 24.001 22.6779C25.3444 22.6983 25.7421 24.7118 26.2148 27.1053C26.9126 30.6386 27.7739 35 32.0827 35C35.2973 35 36.9426 32.6823 38.2788 30.8001C39.2016 29.5003 39.9769 28.4081 41.0198 28.4301C41.9755 28.4502 42.5343 29.5927 43.183 30.9192C44.0923 32.7782 45.1782 34.9986 47.7812 34.9966C53.3491 34.992 53.7232 26.3253 53.2708 22.5932C52.7585 18.3709 51.1747 13.694 47.8998 13.6688C46.1227 13.6549 45.3338 15.9083 44.5184 18.2378ZM51.4367 5.50864C51.584 6.884 50.4203 9.45835 47.6761 9.45835L47.6772 9.4595C44.7846 9.4595 43.7002 7.95474 43.6703 6.04001C43.6404 4.12527 45.39 2.33651 47.1051 2.27696C49.4211 2.19565 51.2594 3.85845 51.4367 5.50864Z" fill="black"/>
</svg>
